<svg width="81" height="29" viewBox="0 0 81 29" fill="none" xmlns="http://www.w3.org/2000/svg">
<path d="M69.1153 23.6583H72.9816V11.6816H69.1153V16.0721H65.4736V11.6816H61.5801V23.6583H65.4736V19.142H69.1153V23.6583Z" fill="#E3000B"/>
<path d="M54.3948 11.4336C50.5285 11.4336 48.4082 13.816 48.4082 18.1213C48.4082 22.1646 49.9057 23.9072 52.7986 23.9072C54.5718 23.9072 55.7936 23.3082 56.4675 22.3348L56.6683 23.6553H59.8369V12.1892C58.5606 11.7841 57.1108 11.4336 54.3948 11.4336ZM55.94 19.9898C55.7087 20.2575 55.4207 20.4702 55.0969 20.6127C54.7731 20.7552 54.4217 20.8237 54.0681 20.8134C53.0198 20.8134 52.4481 19.8401 52.4481 17.9682C52.4481 15.6743 53.072 14.5273 54.32 14.5273C54.8653 14.5122 55.4102 14.5706 55.94 14.7009V19.9898Z" fill="#E3000B"/>
<path d="M43.6369 22.3344L43.8751 23.6583H47.0199V11.6816H43.14V19.9894C42.73 20.4672 42.1476 20.7633 41.52 20.813C40.4479 20.813 39.8489 20.1902 39.8489 19.0671V11.6816H35.9792V19.9894C35.5261 20.4802 34.9 20.7755 34.2332 20.813C33.236 20.813 32.6881 20.1902 32.6881 19.0671V11.6816H28.8184V19.5912C28.8184 22.4841 30.0674 23.9068 32.6847 23.9068C33.4092 23.9402 34.1321 23.8119 34.8009 23.5311C35.4697 23.2503 36.0675 22.824 36.5509 22.2833C37.1499 23.3588 38.2527 23.9068 39.8455 23.9068C41.7412 23.9068 42.7894 23.2261 43.6369 22.3344Z" fill="#E3000B"/>
<path d="M24.4543 9.74338C24.6138 9.58389 24.6138 9.32529 24.4543 9.1658C24.2948 9.0063 24.0362 9.00631 23.8767 9.1658C23.7172 9.32529 23.7172 9.58389 23.8767 9.74338C24.0362 9.90288 24.2948 9.90288 24.4543 9.74338Z" fill="white"/>
<path d="M14.289 12.9036L16.6714 10.933C17.1717 9.57161 17.6924 8.16259 18.2437 6.98841C18.5194 7.61123 18.7747 8.23746 19.0469 8.91134C20.3641 7.83246 21.1707 7.18581 22.2564 6.86929C21.5757 5.3956 21.1128 4.38138 20.895 3.93213H15.5857C15.1364 4.88169 13.4381 8.40083 11.4641 13.169H13.387C13.7108 13.2014 14.0344 13.1061 14.289 12.9036ZM7.86328 23.6652H12.6077L14.2141 18.6554H9.59222C9.04427 20.1461 8.4793 21.7933 7.86328 23.6652ZM22.1577 18.9412L23.839 23.6652H28.5595C27.5861 20.7689 26.5379 18.0495 25.5645 15.5514C24.7375 17.2259 23.9683 18.07 22.1747 18.9378L22.1577 18.9412ZM24.3325 16.0517C25.813 13.6693 26.3303 9.8609 26.3303 9.8609L25.7551 9.61245C25.6802 9.58863 25.6564 9.51375 25.7313 9.43887L26.1771 8.90794C25.8904 8.47855 25.4999 8.12859 25.0417 7.89058C24.5835 7.65257 24.0726 7.53424 23.5565 7.54657C22.7722 7.53692 22.0029 7.76213 21.3477 8.19322C20.5388 8.76446 19.7606 9.37793 19.0163 10.0311C16.8833 11.8654 14.9662 13.9367 13.302 16.2049C13.291 16.2209 13.2846 16.2396 13.2833 16.2589C13.282 16.2783 13.2858 16.2976 13.2945 16.315C13.3032 16.3323 13.3163 16.347 13.3326 16.3576C13.3489 16.3682 13.3677 16.3742 13.387 16.3751H15.909C17.5562 16.3751 19.7038 16.0756 21.9262 13.7272C21.942 13.7053 21.9654 13.69 21.9918 13.6843C22.0182 13.6787 22.0458 13.683 22.0692 13.6966C22.0799 13.7028 22.0892 13.7112 22.0966 13.7212C22.104 13.7312 22.1093 13.7426 22.1122 13.7547C22.115 13.7668 22.1154 13.7793 22.1133 13.7915C22.1112 13.8038 22.1066 13.8155 22.0998 13.8259C21.7595 14.6767 20.878 16.3989 19.2784 17.4233H21.4123C22.8282 17.4233 23.907 16.746 24.3495 16.0517H24.3325ZM23.2093 10.3986C23.0875 10.2768 23.0045 10.1216 22.9708 9.95254C22.9372 9.78352 22.9544 9.60832 23.0204 9.44911C23.0863 9.28989 23.198 9.15381 23.3413 9.05806C23.4846 8.96232 23.653 8.91121 23.8254 8.91121C23.9977 8.91121 24.1661 8.96232 24.3094 9.05806C24.4527 9.15381 24.5644 9.28989 24.6303 9.44911C24.6963 9.60832 24.7135 9.78352 24.6799 9.95254C24.6462 10.1216 24.5632 10.2768 24.4414 10.3986C24.2781 10.5574 24.0592 10.646 23.8315 10.6453C23.6037 10.6447 23.3853 10.5549 23.223 10.3952L23.2093 10.3986Z" fill="#E3000B"/>
<path d="M21.732 14.2313C21.85 14.0543 21.9635 13.8728 22.0724 13.6868C22.049 13.6732 22.0214 13.6689 21.995 13.6745C21.9686 13.6802 21.9452 13.6955 21.9294 13.7174C19.7104 16.076 17.5594 16.3755 15.9088 16.3755H13.3868C13.3674 16.3746 13.3487 16.3686 13.3324 16.358C13.3161 16.3474 13.303 16.3327 13.2943 16.3154C13.2856 16.298 13.2817 16.2787 13.283 16.2593C13.2844 16.24 13.2908 16.2213 13.3017 16.2053C14.9643 13.9337 16.8803 11.859 19.0127 10.0213L14.7856 13.5506C14.4316 13.8529 13.978 14.013 13.5128 13.9999H8.19659C8.04684 13.9999 8.0979 14.1258 8.12172 14.2007C8.32604 14.8584 8.74396 15.4291 9.30927 15.8224C9.87459 16.2157 10.555 16.4091 11.2427 16.3721L9.99361 17.6347C9.97941 17.6492 9.96984 17.6676 9.96613 17.6875C9.96241 17.7075 9.96472 17.7281 9.97275 17.7467C9.98078 17.7653 9.99418 17.7811 10.0112 17.7921C10.0283 17.8031 10.0482 17.8087 10.0685 17.8083H14.8129C18.2401 17.8219 20.3502 16.3312 21.732 14.2313ZM20.2549 19.4692L21.7525 23.6656H22.8518L21.2794 19.2718C20.9418 19.3565 20.5998 19.4224 20.2549 19.4692ZM24.4548 9.74219C24.3976 9.79917 24.3248 9.83792 24.2456 9.85357C24.1665 9.86921 24.0844 9.86104 24.0099 9.83009C23.9353 9.79914 23.8716 9.74679 23.8268 9.67966C23.782 9.61252 23.7581 9.53362 23.7581 9.4529C23.7581 9.37219 23.782 9.29328 23.8268 9.22615C23.8716 9.15902 23.9353 9.10667 24.0099 9.07571C24.0844 9.04476 24.1665 9.03659 24.2456 9.05223C24.3248 9.06788 24.3976 9.10664 24.4548 9.16361C24.3329 9.04174 24.1777 8.95874 24.0087 8.92511C23.8397 8.89147 23.6645 8.90872 23.5052 8.97466C23.346 9.0406 23.2099 9.15227 23.1142 9.29556C23.0184 9.43884 22.9673 9.6073 22.9673 9.77963C22.9673 9.95196 23.0184 10.1204 23.1142 10.2637C23.2099 10.407 23.346 10.5187 23.5052 10.5846C23.6645 10.6505 23.8397 10.6678 24.0087 10.6342C24.1777 10.6005 24.3329 10.5175 24.4548 10.3957C24.6181 10.2323 24.7099 10.0107 24.7099 9.77963C24.7099 9.54859 24.6181 9.327 24.4548 9.16361C24.4928 9.20155 24.5231 9.24664 24.5437 9.29628C24.5643 9.34592 24.5749 9.39915 24.5749 9.4529C24.5749 9.50665 24.5643 9.55988 24.5437 9.60952C24.5231 9.65916 24.4928 9.70425 24.4548 9.74219ZM21.4121 17.4237H19.2816C18.8103 17.7192 18.3081 17.9623 17.7841 18.1487C17.7296 18.1691 17.7092 18.2235 17.733 18.2984L19.6525 23.6656H20.7518L18.9889 18.7477C20.1324 18.7477 22.8688 18.4448 24.3493 16.0521C23.9068 16.7464 22.8279 17.4237 21.4121 17.4237ZM27.9024 8.91516H26.1769L25.7515 9.43929C25.6766 9.51416 25.7004 9.58904 25.7753 9.61286L26.3505 9.86131L27.9739 9.11256C28.001 9.10534 28.0241 9.08765 28.0381 9.0634C28.0522 9.03915 28.056 9.01031 28.0488 8.98323C28.0416 8.95615 28.0239 8.93305 27.9996 8.91901C27.9754 8.90496 27.9465 8.90113 27.9195 8.90835L27.9024 8.91516Z" fill="#009655"/>
</svg>
