<svg width="118" height="36" viewBox="0 0 118 36" fill="none" xmlns="http://www.w3.org/2000/svg">
<rect width="117.714" height="36" fill="#013E7F"/>
<path d="M13.2852 10.1431H21.1786L23.9864 17.3519L26.9001 10.1431H34.7935V25.8574H30.5025V14.8107L26.5292 25.8574H21.3375L17.4173 14.8107V25.8574H13.2852V10.1431Z" fill="#FFF100"/>
<path fill-rule="evenodd" clip-rule="evenodd" d="M88.0527 13.2131C88.0527 11.496 89.4257 10.1431 91.1684 10.1431H101.837C103.579 10.1431 104.952 11.496 104.952 13.2131V22.7873C104.952 24.5045 103.368 25.8574 101.625 25.8574H91.4326C89.6899 25.8574 88.0527 24.5565 88.0527 22.8394V13.2131ZM99.3016 14.3578H93.8093C93.3868 14.3578 93.0698 14.67 93.0698 15.0863V20.8621C93.0698 21.2784 93.3868 21.5906 93.8093 21.5906H99.3016C99.7241 21.5906 100.041 21.2784 100.041 20.8621V15.0863C100.041 14.67 99.7241 14.3578 99.3016 14.3578Z" fill="#FFF100"/>
<path d="M37.3535 10.1431H51.6924V13.4732H42.7103V16.2311H51.6924V19.5092H42.7103V22.4231H51.6924V25.8574H37.3535V10.1431Z" fill="#FFF100"/>
<path d="M53.2285 10.1431H67.5674V13.4732H62.9979V25.8574H57.6405V13.4732H53.2285V10.1431Z" fill="#FFF100"/>
<path fill-rule="evenodd" clip-rule="evenodd" d="M69.1035 25.8054V10.1948H82.7388C83.634 10.1948 84.5814 10.6097 85.2133 11.4395C85.7397 12.1137 85.8452 13.2028 85.8452 13.514L85.7925 17.0407C85.7925 17.8186 85.3188 18.6484 84.5286 19.2189C83.7917 19.7375 82.5283 19.8412 82.2124 19.8412C82.6338 20.4636 86.003 25.8573 86.003 25.8573H80.2643L77.0529 19.7893H74.5262V25.8054H69.1035ZM80.633 13.5659H74.5262V16.4183H80.4753C80.6858 16.4183 81.0017 16.3664 81.1067 16.2627C81.265 16.1071 81.265 15.3292 81.265 15.018C81.265 14.946 81.2655 14.874 81.2665 14.8026C81.2721 14.3093 81.2778 13.8509 81.0017 13.6696C80.949 13.6177 80.7385 13.5659 80.633 13.5659Z" fill="#FFF100"/>
</svg>